{
  "accessors": [
    {
      "bufferView": 2,
      "componentType": 5126,
      "count": 65532,
      "max": [
        45.78401565551758,
        27.756622314453125,
        6.54296875
      ],
      "min": [
        5.421276569366455,
        -21.75392723083496,
        -5.565702438354492
      ],
      "type": "VEC3"
    },
    {
      "bufferView": 2,
      "byteOffset": 786384,
      "componentType": 5126,
      "count": 65532,
      "max": [
        0.9999959468841553,
        0.9997798204421997,
        0.998510479927063
      ],
      "min": [
        -0.9999837875366211,
        -0.9997957348823547,
        -1.0
      ],
      "type": "VEC3"
    },
    {
      "bufferView": 1,
      "componentType": 5126,
      "count": 65532,
      "max": [
        0.9923651218414307,
        0.9992998838424683
      ],
      "min": [
        0.0015527959913015366,
        6.267102435231209e-05
      ],
      "type": "VEC2"
    },
    {
      "bufferView": 0,
      "componentType": 5125,
      "count": 317772,
      "type": "SCALAR"
    },
    {
      "bufferView": 2,
      "byteOffset": 1572768,
      "componentType": 5126,
      "count": 65532,
      "max": [
        45.982147216796875,
        28.111963272094727,
        6.480822563171387
      ],
      "min": [
        -11.96597957611084,
        -23.062931060791016,
        1.3794589042663574
      ],
      "type": "VEC3"
    },
    {
      "bufferView": 2,
      "byteOffset": 2359152,
      "componentType": 5126,
      "count": 65532,
      "max": [
        0.997188925743103,
        0.9999814033508301,
        0.9993162155151367
      ],
      "min": [
        -0.9957671165466309,
        -0.9999793767929077,
        -1.0
      ],
      "type": "VEC3"
    },
    {
      "bufferView": 1,
      "byteOffset": 524256,
      "componentType": 5126,
      "count": 65532,
      "max": [
        0.999846875667572,
        0.9992977976799011
      ],
      "min": [
        0.0005500135011970997,
        0.00023940118262544274
      ],
      "type": "VEC2"
    },
    {
      "bufferView": 0,
      "byteOffset": 1271088,
      "componentType": 5125,
      "count": 325155,
      "type": "SCALAR"
    },
    {
      "bufferView": 2,
      "byteOffset": 3145536,
      "componentType": 5126,
      "count": 65532,
      "max": [
        45.10250473022461,
        10.099615097045898,
        6.420051574707031
      ],
      "min": [
        -5.8492841720581055,
        -37.919254302978516,
        -3.9902074337005615
      ],
      "type": "VEC3"
    },
    {
      "bufferView": 2,
      "byteOffset": 3931920,
      "componentType": 5126,
      "count": 65532,
      "max": [
        0.9999991655349731,
        0.9999991059303284,
        0.9999004602432251
      ],
      "min": [
        -0.9999978542327881,
        -0.9999430775642395,
        -1.0
      ],
      "type": "VEC3"
    },
    {
      "bufferView": 1,
      "byteOffset": 1048512,
      "componentType": 5126,
      "count": 65532,
      "max": [
        0.9999074935913086,
        0.998943030834198
      ],
      "min": [
        0.0005637188442051411,
        3.294163616374135e-05
      ],
      "type": "VEC2"
    },
    {
      "bufferView": 0,
      "byteOffset": 2571708,
      "componentType": 5125,
      "count": 289263,
      "type": "SCALAR"
    },
    {
      "bufferView": 2,
      "byteOffset": 4718304,
      "componentType": 5126,
      "count": 65532,
      "max": [
        27.311084747314453,
        24.739809036254883,
        6.077652454376221
      ],
      "min": [
        -27.170385360717773,
        -37.91633605957031,
        -1.0307278633117676
      ],
      "type": "VEC3"
    },
    {
      "bufferView": 2,
      "byteOffset": 5504688,
      "componentType": 5126,
      "count": 65532,
      "max": [
        0.999999463558197,
        0.9999645352363586,
        0.9999229311943054
      ],
      "min": [
        -0.9999903440475464,
        -0.9999961853027344,
        -0.9999999403953552
      ],
      "type": "VEC3"
    },
    {
      "bufferView": 1,
      "byteOffset": 1572768,
      "componentType": 5126,
      "count": 65532,
      "max": [
        0.9999353289604187,
        0.999346137046814
      ],
      "min": [
        0.0008725868538022041,
        2.2802676539868116e-05
      ],
      "type": "VEC2"
    },
    {
      "bufferView": 0,
      "byteOffset": 3728760,
      "componentType": 5125,
      "count": 302280,
      "type": "SCALAR"
    },
    {
      "bufferView": 2,
      "byteOffset": 6291072,
      "componentType": 5126,
      "count": 65532,
      "max": [
        -1.0439107418060303,
        28.861255645751953,
        5.664168357849121
      ],
      "min": [
        -48.50432205200195,
        -14.972119331359863,
        -1.3381872177124023
      ],
      "type": "VEC3"
    },
    {
      "bufferView": 2,
      "byteOffset": 7077456,
      "componentType": 5126,
      "count": 65532,
      "max": [
        0.9999943971633911,
        0.9999933242797852,
        0.9998079538345337
      ],
      "min": [
        -0.9999988675117493,
        -0.9999973773956299,
        -0.9999999403953552
      ],
      "type": "VEC3"
    },
    {
      "bufferView": 1,
      "byteOffset": 2097024,
      "componentType": 5126,
      "count": 65532,
      "max": [
        0.9998023509979248,
        0.9992809295654297
      ],
      "min": [
        0.0005227738292887807,
        0.00015102943871170282
      ],
      "type": "VEC2"
    },
    {
      "bufferView": 0,
      "byteOffset": 4937880,
      "componentType": 5125,
      "count": 304200,
      "type": "SCALAR"
    },
    {
      "bufferView": 2,
      "byteOffset": 7863840,
      "componentType": 5126,
      "count": 65532,
      "max": [
        -4.161309719085693,
        29.264137268066406,
        5.862346649169922
      ],
      "min": [
        -51.26238250732422,
        -19.067197799682617,
        3.0376834869384766
      ],
      "type": "VEC3"
    },
    {
      "bufferView": 2,
      "byteOffset": 8650224,
      "componentType": 5126,
      "count": 65532,
      "max": [
        0.9995615482330322,
        0.9997007846832275,
        0.8659158945083618
      ],
      "min": [
        -0.9999254941940308,
        -0.9990391135215759,
        -0.9999999403953552
      ],
      "type": "VEC3"
    },
    {
      "bufferView": 1,
      "byteOffset": 2621280,
      "componentType": 5126,
      "count": 65532,
      "max": [
        0.9790537357330322,
        0.9386622905731201
      ],
      "min": [
        0.05138222128152847,
        0.013976739719510078
      ],
      "type": "VEC2"
    },
    {
      "bufferView": 0,
      "byteOffset": 6154680,
      "componentType": 5125,
      "count": 336369,
      "type": "SCALAR"
    },
    {
      "bufferView": 2,
      "byteOffset": 9436608,
      "componentType": 5126,
      "count": 65532,
      "max": [
        -3.7088422775268555,
        -3.4171719551086426,
        5.491448402404785
      ],
      "min": [
        -51.443912506103516,
        -36.926918029785156,
        0.8897696733474731
      ],
      "type": "VEC3"
    },
    {
      "bufferView": 2,
      "byteOffset": 10222992,
      "componentType": 5126,
      "count": 65532,
      "max": [
        0.9999417066574097,
        0.9999249577522278,
        0.9998112916946411
      ],
      "min": [
        -0.9999886155128479,
        -0.9999251961708069,
        -1.0
      ],
      "type": "VEC3"
    },
    {
      "bufferView": 1,
      "byteOffset": 3145536,
      "componentType": 5126,
      "count": 65532,
      "max": [
        0.9999927282333374,
        0.9993451237678528
      ],
      "min": [
        3.611369038480916e-06,
        2.2381427697837353e-05
      ],
      "type": "VEC2"
    },
    {
      "bufferView": 0,
      "byteOffset": 7500156,
      "componentType": 5125,
      "count": 297897,
      "type": "SCALAR"
    },
    {
      "bufferView": 2,
      "byteOffset": 11009376,
      "componentType": 5126,
      "count": 65532,
      "max": [
        45.94233322143555,
        28.062437057495117,
        6.5424604415893555
      ],
      "min": [
        -49.295249938964844,
        -36.4827995300293,
        -6.862191677093506
      ],
      "type": "VEC3"
    },
    {
      "bufferView": 2,
      "byteOffset": 11795760,
      "componentType": 5126,
      "count": 65532,
      "max": [
        0.9996774196624756,
        0.9998617172241211,
        0.9999865293502808
      ],
      "min": [
        -0.9999234676361084,
        -0.9998688697814941,
        -1.0
      ],
      "type": "VEC3"
    },
    {
      "bufferView": 1,
      "byteOffset": 3669792,
      "componentType": 5126,
      "count": 65532,
      "max": [
        0.9999512434005737,
        0.9993137717247009
      ],
      "min": [
        1.3985267287353054e-05,
        6.366753950715065e-07
      ],
      "type": "VEC2"
    },
    {
      "bufferView": 0,
      "byteOffset": 8691744,
      "componentType": 5125,
      "count": 193455,
      "type": "SCALAR"
    },
    {
      "bufferView": 2,
      "byteOffset": 12582144,
      "componentType": 5126,
      "count": 65532,
      "max": [
        45.67649459838867,
        9.905860900878906,
        6.364112377166748
      ],
      "min": [
        -3.4691169261932373,
        -38.06513595581055,
        -3.928649663925171
      ],
      "type": "VEC3"
    },
    {
      "bufferView": 2,
      "byteOffset": 13368528,
      "componentType": 5126,
      "count": 65532,
      "max": [
        0.9999998807907104,
        0.9999573826789856,
        0.9999858140945435
      ],
      "min": [
        -0.9999985098838806,
        -0.9999908208847046,
        -0.9999998807907104
      ],
      "type": "VEC3"
    },
    {
      "bufferView": 1,
      "byteOffset": 4194048,
      "componentType": 5126,
      "count": 65532,
      "max": [
        0.9999862909317017,
        0.999464750289917
      ],
      "min": [
        2.8604968065337744e-06,
        4.013563739135861e-06
      ],
      "type": "VEC2"
    },
    {
      "bufferView": 0,
      "byteOffset": 9465564,
      "componentType": 5125,
      "count": 170307,
      "type": "SCALAR"
    },
    {
      "bufferView": 2,
      "byteOffset": 14154912,
      "componentType": 5126,
      "count": 65534,
      "max": [
        27.067996978759766,
        12.041845321655273,
        6.058826923370361
      ],
      "min": [
        -51.45656204223633,
        -37.91205978393555,
        -4.138210296630859
      ],
      "type": "VEC3"
    },
    {
      "bufferView": 2,
      "byteOffset": 14941320,
      "componentType": 5126,
      "count": 65534,
      "max": [
        0.999967098236084,
        0.9999951720237732,
        0.9999947547912598
      ],
      "min": [
        -0.9999971985816956,
        -0.9999983906745911,
        -0.9999998807907104
      ],
      "type": "VEC3"
    },
    {
      "bufferView": 1,
      "byteOffset": 4718304,
      "componentType": 5126,
      "count": 65534,
      "max": [
        0.9999951720237732,
        0.9993516802787781
      ],
      "min": [
        6.174211739562452e-05,
        3.998924512416124e-06
      ],
      "type": "VEC2"
    },
    {
      "bufferView": 0,
      "byteOffset": 10146792,
      "componentType": 5125,
      "count": 159405,
      "type": "SCALAR"
    },
    {
      "bufferView": 2,
      "byteOffset": 15727728,
      "componentType": 5126,
      "count": 65532,
      "max": [
        -3.3072118759155273,
        29.332305908203125,
        5.894012451171875
      ],
      "min": [
        -51.692039489746094,
        -36.92097091674805,
        -6.224556922912598
      ],
      "type": "VEC3"
    },
    {
      "bufferView": 2,
      "byteOffset": 16514112,
      "componentType": 5126,
      "count": 65532,
      "max": [
        0.9999836683273315,
        0.9999950528144836,
        0.9998892545700073
      ],
      "min": [
        -0.9999997615814209,
        -0.9999850392341614,
        -0.9999999403953552
      ],
      "type": "VEC3"
    },
    {
      "bufferView": 1,
      "byteOffset": 5242576,
      "componentType": 5126,
      "count": 65532,
      "max": [
        0.9999168515205383,
        0.999350368976593
      ],
      "min": [
        4.134789924137294e-05,
        6.734234921168536e-05
      ],
      "type": "VEC2"
    },
    {
      "bufferView": 0,
      "byteOffset": 10784412,
      "componentType": 5125,
      "count": 183654,
      "type": "SCALAR"
    },
    {
      "bufferView": 2,
      "byteOffset": 17300496,
      "componentType": 5126,
      "count": 47581,
      "max": [
        17.64862060546875,
        28.63920021057129,
        5.6497602462768555
      ],
      "min": [
        -19.92827033996582,
        -37.54227828979492,
        -1.2269957065582275
      ],
      "type": "VEC3"
    },
    {
      "bufferView": 2,
      "byteOffset": 17871468,
      "componentType": 5126,
      "count": 47581,
      "max": [
        0.9999943971633911,
        0.9999933242797852,
        0.999923825263977
      ],
      "min": [
        -0.9999873638153076,
        -0.9999696612358093,
        -0.9999998807907104
      ],
      "type": "VEC3"
    },
    {
      "bufferView": 1,
      "byteOffset": 5766832,
      "componentType": 5126,
      "count": 47581,
      "max": [
        0.9999709725379944,
        0.9993346929550171
      ],
      "min": [
        2.113364871547674e-06,
        9.597570169717073e-07
      ],
      "type": "VEC2"
    },
    {
      "bufferView": 0,
      "byteOffset": 11519028,
      "componentType": 5125,
      "count": 120240,
      "type": "SCALAR"
    }
  ],
  "asset": {
    "extras": {
      "author": "johnnokomis (https://sketchfab.com/johnnokomis)",
      "license": "CC-BY-4.0 (http://creativecommons.org/licenses/by/4.0/)",
      "source": "https://sketchfab.com/3d-models/scooters-coffee-85f67d669d144ae7b6712eca7c394962",
      "title": "Scooter's Coffee"
    },
    "generator": "Sketchfab-16.12.0",
    "version": "2.0"
  },
  "bufferViews": [
    {
      "buffer": 0,
      "byteLength": 11999988,
      "name": "floatBufferViews",
      "target": 34963
    },
    {
      "buffer": 0,
      "byteLength": 6147480,
      "byteOffset": 11999988,
      "byteStride": 8,
      "name": "floatBufferViews",
      "target": 34962
    },
    {
      "buffer": 0,
      "byteLength": 18442440,
      "byteOffset": 18147468,
      "byteStride": 12,
      "name": "floatBufferViews",
      "target": 34962
    }
  ],
  "buffers": [
    {
      "byteLength": 36589908,
      "uri": "scene.bin"
    }
  ],
  "extensionsUsed": [
    "KHR_materials_unlit"
  ],
  "images": [
    {
      "uri": "textures/material0_baseColor.jpeg"
    }
  ],
  "materials": [
    {
      "doubleSided": true,
      "extensions": {
        "KHR_materials_unlit": {}
      },
      "name": "material0",
      "pbrMetallicRoughness": {
        "baseColorTexture": {
          "index": 0
        },
        "metallicFactor": 0.0
      }
    }
  ],
  "meshes": [
    {
      "name": "Model_material0_0",
      "primitives": [
        {
          "attributes": {
            "NORMAL": 1,
            "POSITION": 0,
            "TEXCOORD_0": 2
          },
          "indices": 3,
          "material": 0,
          "mode": 4
        }
      ]
    },
    {
      "name": "Model_material0_0",
      "primitives": [
        {
          "attributes": {
            "NORMAL": 5,
            "POSITION": 4,
            "TEXCOORD_0": 6
          },
          "indices": 7,
          "material": 0,
          "mode": 4
        }
      ]
    },
    {
      "name": "Model_material0_0",
      "primitives": [
        {
          "attributes": {
            "NORMAL": 9,
            "POSITION": 8,
            "TEXCOORD_0": 10
          },
          "indices": 11,
          "material": 0,
          "mode": 4
        }
      ]
    },
    {
      "name": "Model_material0_0",
      "primitives": [
        {
          "attributes": {
            "NORMAL": 13,
            "POSITION": 12,
            "TEXCOORD_0": 14
          },
          "indices": 15,
          "material": 0,
          "mode": 4
        }
      ]
    },
    {
      "name": "Model_material0_0",
      "primitives": [
        {
          "attributes": {
            "NORMAL": 17,
            "POSITION": 16,
            "TEXCOORD_0": 18
          },
          "indices": 19,
          "material": 0,
          "mode": 4
        }
      ]
    },
    {
      "name": "Model_material0_0",
      "primitives": [
        {
          "attributes": {
            "NORMAL": 21,
            "POSITION": 20,
            "TEXCOORD_0": 22
          },
          "indices": 23,
          "material": 0,
          "mode": 4
        }
      ]
    },
    {
      "name": "Model_material0_0",
      "primitives": [
        {
          "attributes": {
            "NORMAL": 25,
            "POSITION": 24,
            "TEXCOORD_0": 26
          },
          "indices": 27,
          "material": 0,
          "mode": 4
        }
      ]
    },
    {
      "name": "Model_material0_0",
      "primitives": [
        {
          "attributes": {
            "NORMAL": 29,
            "POSITION": 28,
            "TEXCOORD_0": 30
          },
          "indices": 31,
          "material": 0,
          "mode": 4
        }
      ]
    },
    {
      "name": "Model_material0_0",
      "primitives": [
        {
          "attributes": {
            "NORMAL": 33,
            "POSITION": 32,
            "TEXCOORD_0": 34
          },
          "indices": 35,
          "material": 0,
          "mode": 4
        }
      ]
    },
    {
      "name": "Model_material0_0",
      "primitives": [
        {
          "attributes": {
            "NORMAL": 37,
            "POSITION": 36,
            "TEXCOORD_0": 38
          },
          "indices": 39,
          "material": 0,
          "mode": 4
        }
      ]
    },
    {
      "name": "Model_material0_0",
      "primitives": [
        {
          "attributes": {
            "NORMAL": 41,
            "POSITION": 40,
            "TEXCOORD_0": 42
          },
          "indices": 43,
          "material": 0,
          "mode": 4
        }
      ]
    },
    {
      "name": "Model_material0_0",
      "primitives": [
        {
          "attributes": {
            "NORMAL": 45,
            "POSITION": 44,
            "TEXCOORD_0": 46
          },
          "indices": 47,
          "material": 0,
          "mode": 4
        }
      ]
    }
  ],
  "nodes": [
    {
      "children": [
        1
      ],
      "matrix": [
        1.0,
        0.0,
        0.0,
        0.0,
        0.0,
        2.220446049250313e-16,
        -1.0,
        0.0,
        0.0,
        1.0,
        2.220446049250313e-16,
        0.0,
        0.0,
        0.0,
        0.0,
        1.0
      ],
      "name": "Sketchfab_model"
    },
    {
      "children": [
        2
      ],
      "matrix": [
        1.0,
        0.0,
        0.0,
        0.0,
        0.0,
        -1.0,
        0.0,
        0.0,
        0.0,
        0.0,
        -1.0,
        0.0,
        0.0,
        0.0,
        0.0,
        1.0
      ],
      "name": "model.fbx"
    },
    {
      "children": [
        3
      ],
      "name": "RootNode"
    },
    {
      "children": [
        4,
        5,
        6,
        7,
        8,
        9,
        10,
        11,
        12,
        13,
        14,
        15
      ],
      "name": "Model"
    },
    {
      "mesh": 0,
      "name": "Model_material0_0"
    },
    {
      "mesh": 1,
      "name": "Model_material0_0"
    },
    {
      "mesh": 2,
      "name": "Model_material0_0"
    },
    {
      "mesh": 3,
      "name": "Model_material0_0"
    },
    {
      "mesh": 4,
      "name": "Model_material0_0"
    },
    {
      "mesh": 5,
      "name": "Model_material0_0"
    },
    {
      "mesh": 6,
      "name": "Model_material0_0"
    },
    {
      "mesh": 7,
      "name": "Model_material0_0"
    },
    {
      "mesh": 8,
      "name": "Model_material0_0"
    },
    {
      "mesh": 9,
      "name": "Model_material0_0"
    },
    {
      "mesh": 10,
      "name": "Model_material0_0"
    },
    {
      "mesh": 11,
      "name": "Model_material0_0"
    }
  ],
  "samplers": [
    {
      "magFilter": 9729,
      "minFilter": 9987,
      "wrapS": 10497,
      "wrapT": 10497
    }
  ],
  "scene": 0,
  "scenes": [
    {
      "name": "Sketchfab_Scene",
      "nodes": [
        0
      ]
    }
  ],
  "textures": [
    {
      "sampler": 0,
      "source": 0
    }
  ]
}
